<mxfile host="app.diagrams.net" agent="Mozilla/5.0 (Macintosh; Intel Mac OS X 10_15_7) AppleWebKit/537.36 (KHTML, like Gecko) Chrome/130.0.0.0 Safari/537.36" version="24.8.3">
  <diagram name="Page-1" id="8y0-ugKhMsr1fFRFiYtE">
    <mxGraphModel dx="1026" dy="576" grid="1" gridSize="10" guides="1" tooltips="1" connect="1" arrows="1" fold="1" page="1" pageScale="1" pageWidth="850" pageHeight="1100" math="0" shadow="0">
      <root>
        <mxCell id="0" />
        <mxCell id="1" parent="0" />
        <mxCell id="aArhTA67M-SqyGNjmt2B-4" value="" style="rounded=0;whiteSpace=wrap;html=1;fillColor=#E6E6E6;strokeColor=none;" vertex="1" parent="1">
          <mxGeometry x="70" y="80" width="330" height="330" as="geometry" />
        </mxCell>
        <mxCell id="aArhTA67M-SqyGNjmt2B-2" value="" style="rounded=1;whiteSpace=wrap;html=1;strokeWidth=4;strokeColor=#666666;fillColor=#D4E1F5;" vertex="1" parent="1">
          <mxGeometry x="90" y="150" width="290" height="240" as="geometry" />
        </mxCell>
        <mxCell id="aArhTA67M-SqyGNjmt2B-6" value="&lt;font size=&quot;1&quot; style=&quot;&quot;&gt;&lt;b style=&quot;font-size: 18px;&quot;&gt;doctype (org.iso.18013.5.1.mDL)&lt;/b&gt;&lt;/font&gt;" style="text;strokeColor=none;align=center;fillColor=none;html=1;verticalAlign=middle;whiteSpace=wrap;rounded=0;" vertex="1" parent="1">
          <mxGeometry x="200" y="90" width="60" height="30" as="geometry" />
        </mxCell>
        <mxCell id="aArhTA67M-SqyGNjmt2B-8" value="&lt;font style=&quot;font-size: 18px;&quot;&gt;&lt;b&gt;namespace&lt;/b&gt;&lt;/font&gt;" style="text;strokeColor=none;align=center;fillColor=none;html=1;verticalAlign=middle;whiteSpace=wrap;rounded=0;" vertex="1" parent="1">
          <mxGeometry x="185" y="151" width="100" height="30" as="geometry" />
        </mxCell>
        <mxCell id="aArhTA67M-SqyGNjmt2B-13" value="&lt;font style=&quot;font-size: 15px;&quot;&gt;family_name&lt;/font&gt;" style="rounded=1;whiteSpace=wrap;html=1;strokeWidth=3;strokeColor=#666666;" vertex="1" parent="1">
          <mxGeometry x="110" y="193" width="250" height="39" as="geometry" />
        </mxCell>
        <mxCell id="aArhTA67M-SqyGNjmt2B-14" value="&lt;font style=&quot;font-size: 15px;&quot;&gt;given_name&lt;/font&gt;" style="rounded=1;whiteSpace=wrap;html=1;strokeWidth=3;strokeColor=#666666;" vertex="1" parent="1">
          <mxGeometry x="110" y="241" width="250" height="39" as="geometry" />
        </mxCell>
        <mxCell id="aArhTA67M-SqyGNjmt2B-15" value="&lt;font style=&quot;font-size: 15px;&quot;&gt;birth_date&lt;/font&gt;" style="rounded=1;whiteSpace=wrap;html=1;strokeWidth=3;strokeColor=#666666;" vertex="1" parent="1">
          <mxGeometry x="110" y="290" width="250" height="39" as="geometry" />
        </mxCell>
        <mxCell id="aArhTA67M-SqyGNjmt2B-17" value="&lt;b style=&quot;font-size: 15px;&quot;&gt;&lt;font style=&quot;font-size: 15px;&quot;&gt;.&lt;/font&gt;&lt;/b&gt;&lt;div style=&quot;font-size: 15px;&quot;&gt;&lt;b&gt;&lt;font style=&quot;font-size: 15px;&quot;&gt;.&lt;/font&gt;&lt;/b&gt;&lt;/div&gt;&lt;div style=&quot;font-size: 15px;&quot;&gt;&lt;b&gt;&lt;font style=&quot;font-size: 15px;&quot;&gt;.&lt;/font&gt;&lt;/b&gt;&lt;/div&gt;&lt;div style=&quot;font-size: 15px;&quot;&gt;&lt;br&gt;&lt;/div&gt;" style="text;strokeColor=none;align=center;fillColor=none;html=1;verticalAlign=middle;whiteSpace=wrap;rounded=0;" vertex="1" parent="1">
          <mxGeometry x="205" y="350" width="60" height="30" as="geometry" />
        </mxCell>
        <mxCell id="aArhTA67M-SqyGNjmt2B-18" value="" style="strokeWidth=3;html=1;shape=mxgraph.flowchart.annotation_2;align=left;labelPosition=right;pointerEvents=1;rotation=-180;" vertex="1" parent="1">
          <mxGeometry x="390" y="172.5" width="50" height="200" as="geometry" />
        </mxCell>
        <mxCell id="aArhTA67M-SqyGNjmt2B-19" value="&lt;font style=&quot;font-size: 15px;&quot;&gt;&lt;b&gt;データアイテム&lt;/b&gt;&lt;/font&gt;" style="text;strokeColor=none;align=center;fillColor=none;html=1;verticalAlign=middle;whiteSpace=wrap;rounded=0;" vertex="1" parent="1">
          <mxGeometry x="432" y="257.5" width="130" height="30" as="geometry" />
        </mxCell>
      </root>
    </mxGraphModel>
  </diagram>
</mxfile>
